<?xml version="1.0" encoding="utf-8"?>
<!-- Generator: Adobe Illustrator 15.0.0, SVG Export Plug-In . SVG Version: 6.00 Build 0)  -->
<!DOCTYPE svg PUBLIC "-//W3C//DTD SVG 1.1//EN" "http://www.w3.org/Graphics/SVG/1.1/DTD/svg11.dtd">
<svg version="1.1" id="Layer_1" xmlns="http://www.w3.org/2000/svg" xmlns:xlink="http://www.w3.org/1999/xlink" x="0px" y="0px"
	 width="576px" height="792px" viewBox="0 0 576 792" enable-background="new 0 0 576 792" xml:space="preserve">
<g>
	<path fill="#FFFFFF" stroke="#000000" stroke-width="3.4675" stroke-miterlimit="10" d="M466.562,395.755
		c0-92.714-77.751-167.879-173.658-167.879c-95.913,0-173.662,75.165-173.662,167.879c0,92.717,77.749,167.88,173.662,167.88
		C388.812,563.635,466.562,488.472,466.562,395.755z"/>
	<path fill="#FFFFFF" stroke="#000000" stroke-width="2.9886" stroke-miterlimit="10" d="M442.233,395.755
		c0-79.733-67.16-144.369-150.01-144.369c-82.845,0-150.011,64.636-150.011,144.369c0,79.735,67.166,144.373,150.011,144.373
		C375.073,540.128,442.233,475.49,442.233,395.755z"/>
	<path d="M295.65,531.055c-81.433,0-147.556-58.604-148.598-131.243c-0.006,0.586-0.024,1.173-0.024,1.761
		c0,74.712,66.542,135.272,148.622,135.272c82.085,0,148.627-60.561,148.627-135.272c0-0.588-0.015-1.175-0.021-1.761
		C443.217,472.451,377.09,531.055,295.65,531.055z"/>
	<path fill="none" stroke="#000000" stroke-width="2.6067" stroke-miterlimit="10" d="M421.996,395.403
		c0-70.491-57.798-127.632-129.092-127.632c-71.297,0-129.095,57.141-129.095,127.632c0,70.481,57.797,127.625,129.095,127.625
		C364.198,523.028,421.996,465.885,421.996,395.403z"/>
	<path d="M291.538,250.403c-83.595,0-151.367,65.221-151.367,145.674c0,16.749,2.946,32.835,8.354,47.811l8.445-2.057
		c0,0,3.428,0.172,8.646,10.61c5.221,10.438,8.699,16.529,11.747,13.92c3.045-2.61-6.663-18.178-7.831-23.057
		c-1.458-6.082-1.671-10.458-1.17-13.596c-3.031-10.818-4.658-22.217-4.658-33.987c0-70.17,57.536-127.052,128.509-127.052
		c65.737,0,119.934,48.801,127.58,111.757c1.049-1.704,6.815-12.626-2.335-34.115c-10.001-23.489-13.482-24.79-12.18-26.531
		c1.305-1.741,13.66,17.832,17.27,28.707c3.608,10.872,14.58,19.476,15.187,9.739C420.416,296.127,361.53,250.403,291.538,250.403z"
		/>
	<path d="M292.904,237.71c-90.295,0-163.49,70.758-163.49,158.044c0,87.289,73.194,158.052,163.49,158.052
		c90.289,0,163.485-70.763,163.485-158.052C456.39,308.468,383.193,237.71,292.904,237.71z M292.904,551.267
		c-88.848,0-160.872-69.625-160.872-155.512c0-85.884,72.023-155.51,160.872-155.51c88.842,0,160.865,69.626,160.865,155.51
		C453.77,481.642,381.746,551.267,292.904,551.267z"/>
	<path d="M433.846,327.386l-0.018,0.006c-0.312-0.87-1.131-1.495-2.108-1.495c-1.239,0-2.244,1.005-2.244,2.244
		c0,0.326,0.069,0.633,0.194,0.911l-0.016,0.008c10.316,19.93,16.136,42.414,16.136,66.219c0,81.791-68.589,148.097-153.194,148.097
		c-54.462,0-102.271-27.473-129.438-68.86c-0.313-0.911-1.165-1.572-2.185-1.572c-1.277,0-2.311,1.036-2.311,2.318
		c0,0.67,0.291,1.271,0.75,1.691c27.98,42.551,77.163,70.802,133.185,70.802c87.106,0,157.729-68.266,157.729-152.476
		C450.324,370.881,444.387,347.831,433.846,327.386z"/>
	<path d="M391.332,261.437c-0.428-0.387-0.993-0.629-1.616-0.629c-1.335,0-2.415,1.083-2.415,2.417c0,0.909,0.508,1.688,1.245,2.101
		c42.197,28.969,69.735,76.586,69.735,130.429c0,88.298-74.045,159.876-165.377,159.876c-84.801,0-154.681-61.706-164.252-141.203
		c-1.38-5.895-2.577-13.462-3.224-23.117c-2.22-32.947,17.23-72.734,18.533-75.355c-13.582,23.639-21.327,50.844-21.327,79.799
		c0,90.908,76.227,164.605,170.27,164.605c94.035,0,170.265-73.697,170.265-164.605C463.169,340.302,434.801,291.26,391.332,261.437
		z"/>
</g>
<g>
	<g>
		<path d="M320.267,446.921c0,0.7-0.361,1.733-1.083,3.095c-0.722,1.367-1.777,2.751-3.172,4.156s-3.119,2.687-5.168,3.845
			c-2.051,1.157-4.378,1.881-6.988,2.171c1.395,1.323,2.497,2.861,3.309,4.617c0.81,1.759,1.212,3.465,1.212,5.116
			c0,1.735-0.558,3.616-1.687,5.642c-1.124,2.027-2.664,4.03-4.622,6.018c-1.962,1.982-4.289,3.895-6.99,5.734
			c-2.703,1.837-5.629,3.448-8.783,4.834c-3.148,1.385-6.46,2.501-9.925,3.347c-3.469,0.848-6.954,1.274-10.466,1.274
			c-0.496,0-1.34-0.345-2.53-1.023c-1.196-0.683-2.424-1.509-3.684-2.482c-1.26-0.97-2.362-1.974-3.31-3.008
			c-0.946-1.033-1.417-1.898-1.417-2.603c0-1.033,0.394-2.151,1.183-3.347c0.784-1.199,1.833-2.428,3.139-3.691
			c1.305-1.26,2.811-2.518,4.524-3.78c1.709-1.263,3.514-2.482,5.403-3.658c1.89-1.178,3.793-2.271,5.705-3.288
			c1.914-1.01,3.728-1.891,5.436-2.635c-0.492-0.246-1.01-0.547-1.551-0.898c-0.539-0.35-1.037-0.732-1.485-1.148
			c-0.45-0.41-0.835-0.812-1.146-1.206c-0.319-0.395-0.474-0.755-0.474-1.085c0-0.372,0.346-1.159,1.044-2.357
			c0.698-1.197,1.601-2.592,2.703-4.185c1.101-1.59,2.319-3.273,3.647-5.053c1.325-1.777,2.623-3.401,3.885-4.871
			c1.258-1.462,2.404-2.681,3.441-3.654c1.035-0.972,1.803-1.458,2.295-1.458c0.45,0,1.126,0.093,2.027,0.278
			c0.901,0.189,1.788,0.445,2.664,0.776c0.881,0.332,1.67,0.723,2.37,1.176c0.696,0.458,1.086,0.972,1.18,1.552
			c1.033-0.782,2.079-1.531,3.141-2.231c1.057-0.703,2.104-1.323,3.141-1.863c1.033-0.531,2.023-0.969,2.969-1.297
			c0.944-0.334,1.825-0.498,2.636-0.498c0.675,0,1.449,0.115,2.33,0.339c0.877,0.229,1.689,0.633,2.428,1.209
			c0.744,0.579,1.376,1.367,1.891,2.358C320.006,444.127,320.267,445.39,320.267,446.921z M263.604,490.07
			c2.792,0,5.632-0.434,8.512-1.302c2.878-0.867,5.658-2.012,8.339-3.441c2.678-1.422,5.201-3.046,7.561-4.866
			c2.366-1.816,4.415-3.67,6.147-5.549c1.734-1.88,3.107-3.71,4.119-5.487c1.016-1.776,1.522-3.348,1.522-4.71
			c0-1.033-0.181-1.946-0.542-2.729c-0.36-0.787-0.768-1.489-1.218-2.109c-1.351-0.329-2.457-0.816-3.308-1.456
			c-0.857-0.64-1.44-1.312-1.756-2.018c-1.892,1.984-3.555,3.806-4.996,5.457c-1.444,1.651-2.503,2.873-3.174,3.658
			c1.663-0.621,2.982-1.044,3.948-1.269c0.968-0.229,1.699-0.344,2.196-0.344c0.627,0,0.934,0.114,0.912,0.344
			c-0.022,0.225-0.216,0.443-0.576,0.647c-0.673,0.375-1.88,1.075-3.611,2.11c-1.737,1.032-3.704,2.253-5.908,3.657
			c-2.206,1.407-4.506,2.927-6.89,4.557c-2.39,1.635-4.568,3.237-6.549,4.803c-1.983,1.573-3.615,3.039-4.896,4.406
			c-1.285,1.363-1.925,2.482-1.925,3.347c0,0.705,0.226,1.26,0.676,1.675C262.636,489.866,263.11,490.07,263.604,490.07z
			 M295.618,453.738c3.195-0.08,5.95-0.589,8.272-1.521c2.316-0.928,4.22-1.961,5.705-3.099s2.586-2.22,3.309-3.256
			c0.72-1.031,1.08-1.695,1.08-1.982c0-0.205-0.065-0.401-0.202-0.591c-0.135-0.187-0.45-0.275-0.944-0.275
			c-1.261,0-2.601,0.297-4.021,0.896c-1.417,0.599-2.867,1.395-4.354,2.387c-1.487,0.993-2.983,2.138-4.491,3.442
			C298.464,451.042,297.013,452.375,295.618,453.738z"/>
		<path d="M353.898,455.328c0.044-0.048,0.237-0.252,0.569-0.609c0.335-0.357,0.692-0.715,1.073-1.071
			c0.383-0.357,0.719-0.635,1.003-0.824c0.288-0.193,0.43-0.143,0.43,0.144c0,0.188-0.43,1.085-1.288,2.682
			c-0.859,1.604-1.967,3.534-3.329,5.799c-1.357,2.266-2.838,4.723-4.435,7.369c-1.599,2.65-3.139,5.144-4.617,7.482
			c-1.477,2.339-2.791,4.366-3.938,6.083c-1.143,1.717-1.932,2.789-2.362,3.223c-0.665,0.663-1.611,1.19-2.825,1.573
			c-1.218,0.383-2.35,0.572-3.399,0.572c-1.1,0-2.053-0.261-2.862-0.789c-0.814-0.523-1.492-1.167-2.041-1.933
			c-0.549-0.762-0.979-1.563-1.289-2.396c-0.312-0.833-0.465-1.541-0.465-2.109c-1.529,2.049-3.006,3.755-4.435,5.118
			c-1.435,1.358-2.676,2.084-3.724,2.181c-0.81,0.047-1.693-0.071-2.647-0.357c-0.957-0.286-1.85-0.68-2.685-1.182
			c-0.837-0.503-1.552-1.097-2.147-1.79c-0.596-0.69-0.919-1.441-0.964-2.253c-0.146-1.433,0.104-3.188,0.749-5.261
			c0.644-2.074,1.515-4.26,2.612-6.547c1.099-2.293,2.336-4.558,3.724-6.803c1.384-2.238,2.752-4.268,4.112-6.081
			c1.363-1.812,2.65-3.305,3.864-4.474c1.22-1.17,2.184-1.778,2.9-1.824c1.095-0.049,2.229,0.057,3.401,0.322
			c1.164,0.261,2.291,0.607,3.363,1.037c1.071,0.429,2.049,0.894,2.933,1.395c0.88,0.5,1.563,0.967,2.041,1.395
			c1.003-1.287,1.885-2.324,2.647-3.115c0.764-0.783,1.265-1.176,1.502-1.176c0.574,0,1.217,0.13,1.934,0.393
			c0.715,0.263,1.395,0.583,2.04,0.966c0.644,0.383,1.229,0.762,1.753,1.145c0.525,0.383,0.904,0.669,1.145,0.858
			c0.429,0.479,0.671,0.873,0.717,1.18c0.046,0.312-0.144,0.68-0.572,1.108c-0.288,0.292-0.871,1.028-1.754,2.222
			c-0.886,1.19-1.91,2.634-3.078,4.331c-1.172,1.691-2.397,3.521-3.686,5.473c-1.285,1.959-2.505,3.854-3.649,5.688
			c-1.146,1.838-2.139,3.521-2.972,5.046c-0.835,1.531-1.37,2.697-1.611,3.509c0-0.046,0.023-0.071,0.073-0.071
			c0.762-0.623,1.801-1.691,3.115-3.219c1.309-1.528,2.727-3.249,4.256-5.157c1.527-1.906,3.101-3.91,4.725-6.012
			c1.619-2.098,3.126-4.066,4.506-5.903c1.386-1.834,2.58-3.424,3.579-4.758C352.898,456.569,353.562,455.711,353.898,455.328z
			 M316.106,483.24c0.719-0.379,1.624-1.18,2.72-2.396c1.1-1.216,2.291-2.65,3.578-4.295c1.291-1.645,2.6-3.412,3.938-5.297
			c1.336-1.885,2.601-3.686,3.795-5.403c0.858-1.431,1.741-2.84,2.646-4.224c0.904-1.379,1.79-2.67,2.648-3.865
			c-0.479-0.237-0.957-0.507-1.433-0.82c-0.476-0.311-0.977-0.441-1.502-0.396c-0.43,0.05-1.134,0.479-2.112,1.293
			c-0.978,0.81-2.06,1.894-3.256,3.252c-1.191,1.359-2.434,2.928-3.722,4.688c-1.291,1.768-2.457,3.638-3.504,5.619
			c-1.05,1.981-1.932,3.983-2.652,6.01C316.537,479.435,316.154,481.381,316.106,483.24z"/>
		<path d="M377.655,455.47c0.048-0.046,0.241-0.25,0.574-0.608c0.332-0.357,0.691-0.715,1.072-1.072
			c0.383-0.357,0.729-0.634,1.042-0.822c0.307-0.191,0.462-0.144,0.462,0.145c0,0.142-0.25,0.688-0.751,1.644
			c-0.502,0.956-1.18,2.171-2.038,3.651c-0.86,1.477-1.838,3.126-2.937,4.938c-1.098,1.813-2.233,3.686-3.399,5.619
			c-1.169,1.931-2.337,3.826-3.506,5.686c-1.172,1.863-2.257,3.569-3.259,5.118c-0.999,1.554-1.872,2.854-2.61,3.901
			c-0.74,1.052-1.252,1.742-1.538,2.074c-1.001,0.959-2.04,1.542-3.112,1.757c-1.077,0.214-2.138,0.321-3.188,0.321
			c-1.001,0-1.978-0.153-2.933-0.465c-0.956-0.312-1.827-0.766-2.61-1.362c-0.792-0.594-1.447-1.309-1.971-2.146
			c-0.525-0.833-0.837-1.752-0.932-2.757c-0.048-0.379,0.155-1.082,0.608-2.11c0.454-1.022,1.041-2.242,1.754-3.647
			c0.717-1.409,1.54-2.926,2.468-4.544c0.932-1.624,2.135-3.475,3.615-5.549c1.479-2.078,2.601-3.637,3.364-4.688
			c-0.812-0.62-1.587-1.227-2.325-1.823c-0.742-0.598-1.418-1.256-2.04-1.972c-0.621-0.715-1.136-1.537-1.54-2.467
			c-0.405-0.931-0.68-2.014-0.824-3.253c-0.095-0.721,0.086-1.579,0.54-2.58c0.452-1,1.002-1.992,1.644-2.973
			c0.646-0.975,1.336-1.809,2.078-2.503c0.738-0.69,1.371-1.062,1.897-1.108c0.427-0.047,0.99,0.024,1.681,0.214
			c0.691,0.191,1.395,0.419,2.111,0.68c0.714,0.265,1.37,0.549,1.965,0.858c0.6,0.312,1.015,0.562,1.254,0.751
			c0.478,0.383,0.704,0.776,0.68,1.182c-0.023,0.406-0.177,0.802-0.463,1.183c-0.099,0.145-0.348,0.476-0.753,1.001
			c-0.402,0.526-0.88,1.145-1.431,1.859c-0.551,0.716-1.108,1.458-1.681,2.222c-0.574,0.762-1.075,1.431-1.504,2.004
			c0.476,0.572,1.096,1.17,1.861,1.786c0.764,0.623,1.525,1.218,2.289,1.793c0.762,0.573,1.479,1.094,2.147,1.573
			c0.667,0.476,1.143,0.837,1.431,1.074c0.667,0.619,0.978,1.357,0.932,2.216c-0.049,0.858-0.335,1.599-0.86,2.221
			c-0.286,0.333-1.061,1.243-2.324,2.72c-1.263,1.479-2.435,3.031-3.507,4.651c-1.073,1.622-2.053,3.172-2.937,4.652
			c-0.882,1.479-1.599,2.817-2.146,4.01c-0.551,1.19-0.8,2.074-0.751,2.646v0.071c0.048,0,0.118-0.047,0.213-0.144
			c0.763-0.618,1.802-1.695,3.113-3.223c1.312-1.522,2.732-3.243,4.259-5.148c1.527-1.91,3.103-3.913,4.725-6.013
			c1.622-2.099,3.126-4.068,4.51-5.904c1.383-1.838,2.575-3.427,3.576-4.76C376.656,456.711,377.324,455.853,377.655,455.47z"/>
	</g>
	<g>
		<path d="M290.624,309.782c-0.593,0-0.981-0.148-1.159-0.443c-0.183-0.295-0.387-0.623-0.613-0.988
			c-0.23-0.365-0.582-0.693-1.059-0.988c-0.476-0.295-1.283-0.445-2.421-0.445c-0.908,0-2.353,0.08-4.327,0.239
			c-1.978,0.158-4.309,0.399-6.987,0.716c-2.687,0.317-5.651,0.727-8.899,1.227c-3.25,0.501-5.487,1.296-6.715,2.386
			c-1.227,1.09-2.146,2.034-2.76,2.829c-0.614,0.796-1.682,2.171-3.206,4.123c-1.524,1.958-3.17,4.194-4.942,6.717
			c-1.771,2.521-3.567,5.181-5.384,7.977c-1.819,2.794-3.455,5.478-4.907,8.044c-1.458,2.566-2.648,4.885-3.582,6.956
			c-0.932,2.065-1.396,3.622-1.396,4.668c0,0.634-0.286,1.099-0.855,1.396c-0.565,0.297-1.125,0.443-1.668,0.443
			c-0.273,0-0.751-0.193-1.433-0.58c-0.68-0.384-1.363-0.864-2.043-1.429c-0.684-0.571-1.296-1.161-1.845-1.774
			c-0.541-0.614-0.816-1.17-0.816-1.671c0-0.726,0.319-1.885,0.957-3.476c0.632-1.591,1.485-3.432,2.556-5.521
			c1.064-2.089,2.293-4.353,3.68-6.785c1.389-2.432,2.816-4.84,4.294-7.226c1.477-2.386,2.942-4.681,4.4-6.887
			c1.453-2.202,2.794-4.123,4.021-5.76c-4.546,1.182-8.841,2.534-12.885,4.058c-4.045,1.522-7.545,3.237-10.5,5.148
			c-1.046,0.68-1.841,1.339-2.386,1.976c-0.545,0.638-0.955,1.181-1.227,1.637c-0.273,0.452-0.476,0.816-0.616,1.09
			c-0.135,0.273-0.317,0.408-0.543,0.408c-0.365,0-0.704-0.284-1.021-0.851c-0.321-0.569-0.594-1.25-0.82-2.047
			c-0.226-0.793-0.406-1.601-0.545-2.419c-0.135-0.818-0.204-1.5-0.204-2.043c0-1.365,0.794-2.738,2.384-4.127
			c1.593-1.385,3.762-2.76,6.511-4.123c2.751-1.363,5.968-2.683,9.648-3.956c3.682-1.272,7.601-2.475,11.761-3.613
			c4.158-1.136,8.441-2.18,12.851-3.135c4.406-0.955,8.737-1.772,12.988-2.455c4.247-0.682,8.305-1.216,12.169-1.603
			c3.862-0.386,7.295-0.58,10.293-0.58c0.68,0,1.248,0.011,1.704,0.035c0.45,0.024,0.827,0.137,1.125,0.341
			c0.295,0.204,0.512,0.547,0.648,1.024c0.135,0.474,0.201,1.192,0.201,2.146c0,1.5-0.191,2.829-0.578,3.988
			s-0.831,2.138-1.329,2.933c-0.501,0.794-0.989,1.396-1.466,1.804C291.203,309.576,290.85,309.782,290.624,309.782z"/>
		<path d="M293.896,316.94c0.044-0.043,0.214-0.237,0.509-0.58c0.297-0.339,0.625-0.682,0.99-1.022
			c0.362-0.341,0.692-0.602,0.987-0.784c0.297-0.181,0.441-0.137,0.441,0.137c0,0.182-0.418,1.035-1.26,2.555
			c-0.839,1.524-1.896,3.365-3.168,5.523c-1.276,2.158-2.684,4.499-4.227,7.021c-1.546,2.522-3.024,4.899-4.431,7.124
			c-1.411,2.228-2.66,4.16-3.75,5.796c-1.092,1.637-1.843,2.658-2.251,3.066c-1.09,1.092-2.171,1.717-3.237,1.874
			c-1.07,0.16-2.147,0.241-3.239,0.241c-1.819,0-3.239-0.624-4.26-1.874c-1.022-1.25-1.649-2.74-1.875-4.466
			c-0.091-0.908,0.137-2.217,0.682-3.921c0.545-1.705,1.249-3.513,2.115-5.419c0.862-1.91,1.795-3.806,2.796-5.694
			c0.999-1.885,1.883-3.485,2.658-4.805c-1.137,1.363-2.466,2.955-3.99,4.772c-1.522,1.819-3.101,3.693-4.737,5.625
			c-1.635,1.932-3.283,3.841-4.942,5.726c-1.659,1.887-3.159,3.578-4.499,5.08c-1.341,1.499-2.466,2.716-3.376,3.646
			c-0.909,0.934-1.476,1.398-1.704,1.398c-0.408,0.045-0.888-0.024-1.431-0.204c-0.545-0.181-1.057-0.454-1.533-0.819
			c-0.476-0.361-0.91-0.818-1.296-1.363c-0.387-0.545-0.604-1.134-0.649-1.772c-0.044-0.499,0.248-1.591,0.888-3.273
			c0.634-1.681,1.509-3.748,2.623-6.201c1.114-2.456,2.408-5.171,3.884-8.148c1.48-2.977,3.013-5.977,4.604-9
			c1.589-3.022,3.191-5.964,4.807-8.828c1.611-2.864,3.113-5.41,4.497-7.636c1.387-2.226,2.594-4.023,3.615-5.386
			c1.023-1.364,1.783-2.067,2.284-2.113c0.5-0.045,1.081,0.011,1.735,0.169c0.664,0.161,1.321,0.354,1.981,0.58
			c0.656,0.228,1.249,0.489,1.77,0.784c0.523,0.297,0.92,0.558,1.197,0.784c0.542,0.41,0.86,0.82,0.952,1.229
			s-0.067,0.886-0.478,1.431c-0.955,1.136-2.034,2.581-3.236,4.329c-1.207,1.75-2.49,3.693-3.853,5.83
			c-1.365,2.136-2.772,4.396-4.227,6.785c-1.455,2.384-2.889,4.77-4.296,7.156c-1.409,2.388-2.772,4.729-4.09,7.021
			c-1.318,2.296-2.523,4.42-3.611,6.374c0.999-1.227,2.169-2.634,3.509-4.227c1.338-1.589,2.727-3.226,4.16-4.907
			c1.433-1.683,2.875-3.352,4.329-5.013c1.455-1.659,2.794-3.135,4.019-4.43c1.229-1.294,2.273-2.352,3.139-3.17
			c0.864-0.818,1.453-1.252,1.771-1.296c0.41-0.045,1.035,0.137,1.876,0.545c0.84,0.41,1.68,0.932,2.522,1.569
			c0.838,0.636,1.579,1.34,2.213,2.113c0.638,0.773,1.002,1.5,1.092,2.182c0.046,0.456-0.202,1.236-0.749,2.352
			c-0.545,1.113-1.24,2.432-2.078,3.954c-0.842,1.524-1.773,3.148-2.796,4.874c-1.023,1.728-1.987,3.421-2.898,5.08
			c-0.908,1.659-1.715,3.194-2.419,4.601c-0.706,1.409-1.148,2.522-1.331,3.339h0.071c0.726-0.588,1.714-1.611,2.962-3.065
			c1.25-1.455,2.616-3.092,4.092-4.909s2.989-3.726,4.531-5.726c1.546-2.001,2.979-3.875,4.296-5.625
			c1.316-1.75,2.454-3.261,3.411-4.535C292.938,318.121,293.575,317.305,293.896,316.94z"/>
		<path d="M312.164,325.666c0.41-0.363,0.84-0.784,1.296-1.26c0.454-0.478,0.873-0.896,1.26-1.261
			c0.386-0.365,0.714-0.591,0.989-0.682c0.273-0.091,0.408,0.045,0.408,0.408c0,0.319-0.364,1.159-1.09,2.523
			c-0.728,1.363-1.693,2.977-2.898,4.839c-1.205,1.865-2.59,3.841-4.157,5.931c-1.569,2.091-3.214,4.009-4.943,5.751
			c-1.727,1.743-3.475,3.187-5.248,4.328c-1.773,1.145-3.435,1.715-4.979,1.715c-1.546,0-2.977-0.25-4.294-0.75
			c-1.32-0.5-2.455-1.192-3.409-2.08c-0.953-0.886-1.702-1.931-2.251-3.135c-0.545-1.203-0.816-2.512-0.816-3.921
			c0-2.136,0.362-4.236,1.09-6.307c0.726-2.065,1.648-4.043,2.762-5.931c1.112-1.885,2.328-3.624,3.647-5.213
			c1.319-1.591,2.601-2.977,3.852-4.16c1.25-1.181,2.352-2.102,3.307-2.76c0.953-0.66,1.613-0.99,1.976-0.99
			c0.363,0,0.82,0.093,1.363,0.273c0.545,0.184,1.125,0.408,1.739,0.682c0.612,0.273,1.216,0.569,1.807,0.886
			c0.589,0.319,1.113,0.638,1.567,0.953c0.273,0.137,0.636,0.375,1.092,0.718c0.454,0.339,0.886,0.728,1.294,1.157
			c0.41,0.432,0.775,0.877,1.092,1.331c0.319,0.454,0.478,0.84,0.478,1.157c0,0.365-0.215,0.955-0.648,1.773
			c-0.434,0.819-1.012,1.727-1.735,2.727c-0.731,0.999-1.571,2.034-2.524,3.101c-0.953,1.068-1.92,2.034-2.896,2.898
			c-0.978,0.864-1.945,1.581-2.898,2.147c-0.953,0.569-1.819,0.854-2.59,0.854c-0.773,0-1.411-0.057-1.909-0.171
			c-0.503-0.113-0.933-0.263-1.298-0.441c-0.86,1.553-1.545,3.05-2.041,4.492c-0.502,1.441-0.753,2.712-0.753,3.81
			c0,0.917,0.139,1.477,0.41,1.683c0.273,0.206,0.521,0.308,0.749,0.308c1.271,0,2.648-0.397,4.125-1.192s2.953-1.783,4.432-2.964
			c1.475-1.183,2.918-2.49,4.329-3.923c1.407-1.429,2.692-2.794,3.854-4.09c1.155-1.294,2.121-2.42,2.896-3.374
			C311.367,326.554,311.889,325.941,312.164,325.666z M304.871,319.463c-0.776,0.229-1.615,0.682-2.525,1.363
			c-0.909,0.682-1.843,1.513-2.792,2.488c-0.957,0.979-1.901,2.069-2.831,3.272c-0.934,1.207-1.807,2.444-2.625,3.715h0.069
			c0.997,0,2.053-0.374,3.168-1.123c1.114-0.751,2.171-1.681,3.168-2.796c1.003-1.112,1.887-2.293,2.662-3.543
			C303.936,321.588,304.503,320.464,304.871,319.463z"/>
	</g>
	<g>
		<polygon points="208.835,390.053 200.361,357.228 183.949,357.228 183.949,434.993 199.074,434.993 199.074,398.309 
			208.835,429.415 218.705,398.309 218.705,434.993 233.826,434.993 233.826,357.228 217.31,357.228 		"/>
		<path d="M250.046,357.228l-14.049,77.766h15.658l1.394-9.651h10.619l1.396,9.651h15.66l-14.053-77.766H250.046z M254.767,413.005
			l3.645-27.565l3.544,27.565H254.767z"/>
		<path d="M348.45,357.228h-19.305c-3.648,0-6.314,0.912-7.991,2.735c-1.683,1.826-2.525,4.274-2.525,7.346v56.641
			c0,1.5,0.178,2.911,0.537,4.235s0.968,2.485,1.827,3.484c0.857,1.002,1.996,1.809,3.43,2.415c1.431,0.609,3.222,0.909,5.367,0.909
			h18.018c2.147,0,3.928-0.3,5.366-0.909c1.427-0.606,2.57-1.413,3.43-2.415c0.857-0.999,1.465-2.16,1.823-3.484
			s0.536-2.735,0.536-4.235v-56.641c0-3.071-0.844-5.52-2.52-7.346C354.761,358.14,352.097,357.228,348.45,357.228z
			 M343.196,419.763c0,0.576-0.092,0.985-0.268,1.236c-0.184,0.248-0.591,0.371-1.235,0.371h-5.901
			c-0.642,0-1.054-0.123-1.232-0.371c-0.181-0.251-0.268-0.66-0.268-1.236v-47.412c0-1,0.463-1.498,1.396-1.498h6.111
			c0.928,0,1.396,0.498,1.396,1.498V419.763z"/>
		<polygon points="386.016,357.228 386.016,388.441 378.081,357.228 363.274,357.228 363.274,434.993 377.646,434.993 
			377.646,402.493 386.016,434.993 402.001,434.993 402.001,357.228 		"/>
		<path d="M310.23,360.698c-1.572-1.381-3.436-2.49-5.535-3.297c-2.108-0.813-4.357-1.223-6.682-1.223
			c-2.33,0-4.561,0.412-6.634,1.227c-2.068,0.816-3.905,1.928-5.461,3.302c-1.586,1.395-2.849,3.064-3.756,4.956
			c-0.912,1.902-1.375,3.957-1.375,6.105v6.81c0,2.397,0.336,4.616,1.003,6.588c0.653,1.944,1.545,3.797,2.639,5.502
			c1.077,1.678,2.301,3.266,3.647,4.72c1.299,1.408,2.625,2.796,3.964,4.159c2.366,2.446,4.543,4.98,6.466,7.54
			c1.783,2.37,2.685,5.148,2.685,8.253v5.106c0,0.762-0.275,1.355-0.866,1.868c-0.629,0.545-1.385,0.807-2.311,0.807
			c-0.841,0-1.556-0.266-2.181-0.812c-0.594-0.521-0.873-1.122-0.873-1.898v-7.37h-14.173v7.301c0,2.144,0.462,4.213,1.372,6.146
			c0.906,1.932,2.174,3.615,3.758,5.009c1.565,1.379,3.404,2.49,5.463,3.296c2.068,0.816,4.298,1.23,6.634,1.23
			c2.326,0,4.578-0.413,6.684-1.225c2.103-0.808,3.966-1.92,5.535-3.3c1.586-1.397,2.85-3.083,3.761-5.011
			c0.908-1.938,1.371-4.006,1.371-6.146v-5.097c0-2.611-0.354-5.045-1.059-7.245c-0.703-2.17-1.633-4.189-2.766-6.004
			c-1.112-1.784-2.397-3.503-3.82-5.1c-1.387-1.559-2.75-3.057-4.108-4.519c-2.285-2.361-4.356-4.76-6.157-7.132
			c-1.678-2.208-2.494-4.771-2.494-7.836v-5.665c0-0.696,0.282-1.278,0.888-1.825c0.637-0.578,1.325-0.845,2.166-0.845
			c0.912,0,1.661,0.275,2.287,0.842c0.606,0.554,0.89,1.134,0.89,1.829v9.11h14.174v-9.11c0-2.146-0.464-4.196-1.375-6.102
			C313.081,363.762,311.82,362.098,310.23,360.698z"/>
	</g>
	<g>
		<g>
			<path d="M225.218,458.879c0,0,3.456-1.344,3.321-4.625c-0.135-3.283-3.85-4.562-6.358-4.411
				c-2.498,0.139-15.738,3.368-27.339-6.859c0,0,22.474,28.982,59.417,19.503C254.273,462.466,230.978,464.401,225.218,458.879z"/>
		</g>
		<g>
			<path d="M239.286,453.2c0,0,7.08,1.119,12.169,7.452c0,0,1.856-3.489-1.525-7.454c-3.393-3.959-15.208-3.69-17.579-11.921
				c0,0-1.134,22.743,16.083,20.093C248.433,461.37,248.242,457.679,239.286,453.2z"/>
		</g>
		<g>
			<g>
				<path d="M248.114,480.014c6.896-7.174,5.35-14.529,3.169-15.154c-1.525-0.447-6.23-3.706-9.318,4.735
					c-3.075,8.438-5.374,12.124-12.408,15.419C227.461,485.998,241.707,486.676,248.114,480.014z"/>
			</g>
		</g>
	</g>
</g>
<path d="M147.112,522.763l-8.15,7.99l-3.294-3.36l17.278-16.938l3.575,3.646l-5.447,9.031l9.138-5.267l3.598,3.671l-17.278,16.938
	l-3.294-3.36l8.151-7.99l-9.061,4.583L147.112,522.763z"/>
<path d="M153.643,545.76c-1.076-0.898-1.643-1.748-1.698-2.549c-0.056-0.801,0.344-1.713,1.2-2.738l13.114-15.701l3.791,3.166
	l-12.451,14.908c-0.114,0.137-0.179,0.257-0.192,0.36c-0.015,0.104,0.055,0.221,0.209,0.349l1.306,1.091
	c0.154,0.129,0.28,0.177,0.38,0.144c0.099-0.032,0.206-0.117,0.32-0.254l12.451-14.907l3.791,3.166l-13.114,15.702
	c-0.855,1.024-1.683,1.58-2.48,1.668c-0.798,0.087-1.735-0.318-2.811-1.217L153.643,545.76z"/>
<path d="M181.481,554.462c-0.303,0.439-0.733,0.738-1.288,0.895c-0.555,0.158-1.125,0.034-1.711-0.371l-2.297,7.784l-4.118-2.846
	l2.461-7.671l-0.521-0.36l-4.383,6.342l-3.981-2.751l13.757-19.904l7.55,5.218c0.933,0.646,1.454,1.35,1.562,2.114
	c0.107,0.764-0.111,1.539-0.655,2.326L181.481,554.462z M180.972,541.817l-4.744,6.863l1.95,1.347
	c0.256,0.178,0.479,0.129,0.669-0.146l4.174-6.04c0.19-0.274,0.156-0.501-0.1-0.678L180.972,541.817z"/>
<path d="M201.743,550.628c0.833,0.471,1.326,1.057,1.479,1.757s0.011,1.438-0.427,2.213l-5.703,10.079
	c-0.23,0.406-0.484,0.755-0.763,1.044c-0.279,0.29-0.606,0.495-0.98,0.615c-0.375,0.12-0.797,0.144-1.267,0.069
	c-0.47-0.074-0.995-0.275-1.576-0.604l-3.602-2.038l-3.172,5.606l-4.183-2.366l11.914-21.06L201.743,550.628z M195.561,552
	l-4.684,8.278l2.091,1.184c0.174,0.098,0.305,0.128,0.392,0.087c0.086-0.04,0.174-0.138,0.262-0.293l4.207-7.437
	c0.153-0.271,0.104-0.478-0.147-0.62L195.561,552z"/>
<path d="M209.796,580.779l-4.5-2.038l3.993-8.815l-2.402-1.088l-3.993,8.816l-4.5-2.038l9.982-22.041l4.499,2.038l-4.268,9.424
	l2.402,1.088l4.268-9.424l4.5,2.037L209.796,580.779z"/>
<path d="M224.272,586.414l-4.824-1.675l2.014-5.801l1.539-18.578l4.729,1.642l-1.694,11.494l5.824-10.061l4.729,1.642
	l-10.304,15.535L224.272,586.414z"/>
<path d="M232.007,587.754c0.193-0.686,0.605-1.204,1.237-1.559c0.631-0.354,1.29-0.434,1.975-0.24
	c0.685,0.193,1.204,0.606,1.558,1.237c0.353,0.632,0.434,1.29,0.24,1.976c-0.103,0.364-0.289,0.733-0.556,1.108
	c-0.268,0.375-0.581,0.727-0.938,1.053c-0.358,0.327-0.731,0.626-1.121,0.897c-0.389,0.272-0.759,0.497-1.109,0.676l-1.67-0.472
	c0.304-0.261,0.596-0.537,0.875-0.828c0.278-0.291,0.522-0.604,0.733-0.938c-0.612-0.288-1.008-0.712-1.185-1.271
	C231.869,588.836,231.856,588.289,232.007,587.754z"/>
<path d="M254.439,569.798l4.541,0.77l0.811,9.988l1.624-9.575l4.903,0.832l-4.046,23.855l-4.902-0.832l-0.875-10.405l-1.691,9.97
	l-4.409-0.748L254.439,569.798z"/>
<path d="M281.591,594.086c-0.038,0.465-0.129,0.898-0.273,1.3c-0.145,0.401-0.362,0.747-0.653,1.035
	c-0.292,0.289-0.667,0.51-1.125,0.662c-0.459,0.152-1.021,0.201-1.686,0.147l-5.588-0.454c-0.666-0.054-1.212-0.193-1.64-0.418
	c-0.429-0.225-0.763-0.503-1.004-0.835s-0.4-0.707-0.478-1.127c-0.078-0.419-0.097-0.862-0.06-1.327l1.427-17.563
	c0.078-0.953,0.4-1.692,0.967-2.216c0.566-0.522,1.416-0.738,2.547-0.646l5.988,0.486c1.131,0.093,1.934,0.442,2.409,1.05
	c0.475,0.608,0.674,1.389,0.596,2.343L281.591,594.086z M275.711,577.033c-0.289-0.023-0.445,0.12-0.471,0.431l-1.195,14.702
	c-0.014,0.178,0.003,0.308,0.052,0.39c0.049,0.082,0.173,0.131,0.373,0.147l1.83,0.148c0.199,0.017,0.33-0.012,0.392-0.085
	c0.061-0.073,0.1-0.198,0.114-0.376l1.195-14.702c0.025-0.311-0.107-0.478-0.395-0.501L275.711,577.033z"/>
<path d="M300.298,587.78c0.008,0.534-0.168,1.026-0.528,1.477c-0.359,0.451-0.896,0.682-1.607,0.693l2.657,7.668l-5.006,0.079
	l-2.457-7.672l-0.634,0.01l0.121,7.708l-4.839,0.076l-0.379-24.193l9.177-0.144c1.134-0.018,1.967,0.253,2.499,0.812
	c0.531,0.56,0.805,1.317,0.82,2.273L300.298,587.78z M292.53,577.788l0.131,8.343l2.37-0.037c0.311-0.005,0.464-0.174,0.459-0.508
	l-0.115-7.342c-0.005-0.333-0.164-0.498-0.475-0.493L292.53,577.788z"/>
<path d="M314.235,572.42l1.585,4.386l-3.226,0.277l1.692,19.618l-4.921,0.425l-1.692-19.618l-3.226,0.278l0.877-4.598
	L314.235,572.42z"/>
<path d="M335.642,593.613l-4.87,0.826l-1.618-9.542l-2.6,0.441l1.618,9.542l-4.869,0.826l-4.047-23.855l4.87-0.826l1.73,10.2
	l2.6-0.441l-1.73-10.2l4.87-0.825L335.642,593.613z"/>
<path d="M353.399,589.186c-1.345,0.397-2.365,0.397-3.062,0c-0.698-0.396-1.235-1.235-1.614-2.516l-4.956-16.771
	c-0.271-0.918-0.219-1.699,0.159-2.345c0.378-0.645,0.951-1.081,1.719-1.309l6.113-1.807l2.077,4.085l-4.449,1.314
	c-0.277,0.082-0.371,0.272-0.283,0.571l4.039,13.666c0.089,0.299,0.271,0.407,0.549,0.325l4.448-1.315l0.445,4.567L353.399,589.186z
	"/>
<path d="M368.523,580.976l0.682,2.958l-4.542,1.762l-4.677-24.139l4.822-1.871l12.828,20.976l-4.542,1.763l-1.491-2.643
	L368.523,580.976z M367.633,577.205l2.085-0.81l-4.13-7.598L367.633,577.205z"/>
<path d="M389.863,563.875c0.237,0.479,0.29,0.998,0.158,1.561c-0.131,0.562-0.516,1-1.153,1.316l5.697,5.78l-4.485,2.224
	l-5.518-5.869l-0.568,0.282l3.425,6.906l-4.335,2.15l-10.749-21.678l8.223-4.077c1.017-0.504,1.886-0.618,2.606-0.342
	c0.72,0.275,1.293,0.843,1.718,1.699L389.863,563.875z M378.554,558.195l3.706,7.475l2.123-1.053
	c0.279-0.138,0.345-0.356,0.196-0.655l-3.262-6.578c-0.148-0.299-0.361-0.38-0.641-0.241L378.554,558.195z"/>
<path d="M408.972,559.976c0.245,0.398,0.427,0.803,0.548,1.211c0.12,0.409,0.148,0.816,0.084,1.222s-0.237,0.805-0.518,1.198
	c-0.28,0.395-0.705,0.766-1.273,1.115l-4.778,2.933c-0.569,0.35-1.093,0.561-1.57,0.632c-0.479,0.071-0.913,0.045-1.304-0.082
	c-0.391-0.125-0.74-0.334-1.051-0.627c-0.311-0.292-0.587-0.638-0.832-1.036l-9.219-15.018c-0.5-0.815-0.677-1.602-0.527-2.358
	c0.148-0.757,0.707-1.433,1.674-2.026l5.119-3.143c0.968-0.594,1.822-0.785,2.564-0.576c0.742,0.211,1.364,0.724,1.864,1.538
	L408.972,559.976z M394.157,549.686c-0.246,0.151-0.288,0.36-0.125,0.625l7.717,12.572c0.094,0.151,0.184,0.246,0.272,0.283
	c0.088,0.037,0.217,0.003,0.388-0.102l1.564-0.96c0.171-0.104,0.26-0.205,0.266-0.301c0.007-0.095-0.036-0.219-0.129-0.37
	l-7.718-12.572c-0.163-0.265-0.368-0.322-0.614-0.171L394.157,549.686z"/>
<path d="M401.84,538.224l4.008-2.942l11.654,15.871l3.928-2.885l1.994,4.126l-7.264,5.333L401.84,538.224z"/>
<path d="M413.609,529.841l3.801-2.995l14.976,19.005l-3.802,2.995L413.609,529.841z"/>
<path d="M420.266,523.14l3.314-3.198l8.521,5.273l-6.743-6.988l3.578-3.453l16.802,17.411l-3.579,3.453l-8.895-5.469l7.021,7.276
	l-3.218,3.105L420.266,523.14z"/>
<path d="M450.116,521.683l1.99,2.29l-3.183,3.689l-15.465-19.115l3.379-3.916l21.177,12.494l-3.183,3.689l-2.558-1.634
	L450.116,521.683z M447.559,518.771l1.461-1.693l-7.214-4.769L447.559,518.771z"/>
</svg>
